<svg width="36" height="50" viewBox="0 0 36 50" fill="none" xmlns="http://www.w3.org/2000/svg">
<path d="M29.7477 28.6258C28.0073 31.0127 26.1577 33.5494 25.1139 36.4902H10.8911C9.84192 33.5144 7.95595 30.9404 6.18451 28.5226L6.15419 28.4812L6.1535 28.4803C5.643 27.7852 5.14128 27.102 4.66003 26.4109L4.65897 26.4094C2.83393 23.799 1.7644 20.6191 1.7644 17.1875C1.7644 8.25023 9.03093 1 18.0001 1C26.9689 1 34.2358 8.24987 34.2358 17.1973C34.2358 20.628 33.1667 23.7989 31.3402 26.4206L31.3401 26.4207C30.8589 27.1118 30.3572 27.795 29.8467 28.4901L29.8446 28.493C29.8123 28.5372 29.78 28.5814 29.7477 28.6258ZM24.8345 42.1875C24.8345 45.949 21.7789 49 18.0001 49C14.2212 49 11.1657 45.949 11.1657 42.1875V41.625H24.8345V42.1875ZM8.5988 19.75C10.0102 19.75 11.1657 18.6018 11.1657 17.1875C11.1657 13.426 14.2212 10.375 18.0001 10.375C19.4115 10.375 20.567 9.2268 20.567 7.8125C20.567 6.3982 19.4115 5.25 18.0001 5.25C11.3886 5.25 6.03192 10.5877 6.03192 17.1875C6.03192 18.6018 7.18737 19.75 8.5988 19.75Z" stroke="white" stroke-width="2"/>
</svg>
